<?xml version="1.0" encoding="utf-8"?>
<!-- Generator: Adobe Illustrator 15.1.0, SVG Export Plug-In . SVG Version: 6.00 Build 0)  -->
<!DOCTYPE svg PUBLIC "-//W3C//DTD SVG 1.1//EN" "http://www.w3.org/Graphics/SVG/1.1/DTD/svg11.dtd">
<svg version="1.1" id="Layer_1" xmlns="http://www.w3.org/2000/svg" xmlns:xlink="http://www.w3.org/1999/xlink" x="0px" y="0px"
	 width="64px" height="64px" viewBox="0 0 64 64" enable-background="new 0 0 64 64" xml:space="preserve">
<linearGradient id="SVGID_1_" gradientUnits="userSpaceOnUse" x1="75" y1="540" x2="75" y2="476" gradientTransform="matrix(1 0 0 1 -43 -476)">
	<stop  offset="0" style="stop-color:#1586C1"/>
	<stop  offset="1" style="stop-color:#88D6F8"/>
</linearGradient>
<path fill="url(#SVGID_1_)" d="M64,56c0,4.418-3.582,8-8,8H8c-4.418,0-8-3.582-8-8V8c0-4.418,3.582-8,8-8h48c4.418,0,8,3.582,8,8V56
	z"/>
<g>
	<path fill="#1C6FB7" d="M34.259,16.191l14.978,14.995c1.199,1.2,1.199,3.147,0,4.349L34.259,50.528c-1.196,1.2-3.143,1.2-4.341,0
		L14.941,35.535c-1.198-1.201-1.198-3.146,0-4.349l14.977-14.995C31.117,14.991,33.063,14.991,34.259,16.191z"/>
</g>
<path fill="#1F70B7" d="M31.174,31.188l-2.384-3.16c1.205-3.511,0.754-7.531-1.565-10.781c-3.813-5.342-11.228-6.578-16.562-2.763
	c-5.335,3.817-6.569,11.243-2.758,16.584c3.05,4.271,8.399,5.91,13.149,4.442l10.168,8.342c0,0,0.615,0.572,1.297,0.02l31.461-26.44
	V7.613C63.777,3.376,60.287,0,56,0h-1.066L32.668,31.116C31.875,32.219,31.174,31.188,31.174,31.188z"/>
<radialGradient id="SVGID_2_" cx="241.8369" cy="625.9844" r="13.5054" gradientTransform="matrix(0.64 0 0 0.6408 -133.84 -378.2967)" gradientUnits="userSpaceOnUse">
	<stop  offset="0" style="stop-color:#C51689"/>
	<stop  offset="1" style="stop-color:#781B56"/>
</radialGradient>
<path fill="url(#SVGID_2_)" d="M14.293,30.965c-1.145-0.026-2.23-0.271-3.229-0.688c1.569,1.557,3.709,2.539,6.092,2.598
	c4.951,0.121,9.064-3.801,9.186-8.759c0.092-3.813-2.203-7.127-5.521-8.512c1.693,1.681,2.722,4.028,2.658,6.603
	C23.357,27.166,19.244,31.086,14.293,30.965z"/>
<path fill="#FFFFFF" d="M63.979,7.575c-0.207-3.926-3.235-7.102-7.101-7.524L32.639,33.369c-0.695,0.773-1.306,0.366-1.547,0.079
	c-0.242-0.284-13.818-18.146-13.818-18.146l-8.221,8.853l22.209,17.886c0,0,0.543,0.506,1.146,0.018l31.571-26.678V7.575z"/>
<radialGradient id="SVGID_3_" cx="624.6055" cy="-1008.3433" r="17.3974" gradientTransform="matrix(-0.4041 -0.497 0.4963 -0.4046 766.3831 -73.9783)" gradientUnits="userSpaceOnUse">
	<stop  offset="0.0773" style="stop-color:#E6F4B0"/>
	<stop  offset="0.1869" style="stop-color:#E1F2A3"/>
	<stop  offset="0.3877" style="stop-color:#D5EB82"/>
	<stop  offset="0.6571" style="stop-color:#C1E04D"/>
	<stop  offset="0.9819" style="stop-color:#A5D203"/>
	<stop  offset="0.9948" style="stop-color:#A4D100"/>
</radialGradient>
<path fill="url(#SVGID_3_)" d="M10.705,16.127C6.275,19.92,5.757,26.59,9.546,31.024c3.788,4.437,10.449,4.953,14.879,1.16
	c4.429-3.794,4.946-10.464,1.159-14.897C21.794,12.853,15.133,12.332,10.705,16.127z"/>
<g opacity="0.35">
	<path fill="#91BD15" d="M21.916,29.564c-0.4,0.324-0.46,0.912-0.136,1.311c0.323,0.398,0.909,0.459,1.31,0.135
		c0.396-0.324,0.458-0.911,0.135-1.312C22.898,29.299,22.313,29.24,21.916,29.564z"/>
	<path fill="#91BD15" d="M19.902,27.088c-0.398,0.324-0.461,0.908-0.135,1.311c0.323,0.398,0.907,0.459,1.308,0.133
		c0.397-0.324,0.46-0.91,0.135-1.308C20.884,26.823,20.299,26.762,19.902,27.088z"/>
	<path fill="#91BD15" d="M19.195,24.746c-0.324-0.4-0.909-0.461-1.309-0.136c-0.398,0.324-0.459,0.911-0.135,1.31
		c0.325,0.4,0.912,0.461,1.311,0.136C19.458,25.729,19.521,25.144,19.195,24.746z"/>
	<path fill="#91BD15" d="M17.18,22.267c-0.324-0.397-0.91-0.459-1.309-0.134c-0.398,0.324-0.457,0.912-0.135,1.311
		c0.324,0.398,0.912,0.46,1.312,0.134C17.445,23.254,17.506,22.666,17.18,22.267z"/>
	<path fill="#91BD15" d="M15.165,19.789c-0.323-0.398-0.908-0.459-1.308-0.133c-0.398,0.323-0.457,0.909-0.135,1.311
		c0.325,0.398,0.91,0.459,1.311,0.134C15.432,20.775,15.492,20.19,15.165,19.789z"/>
	<circle fill="#91BD15" cx="12.432" cy="17.899" r="0.931"/>
	<path fill="#91BD15" d="M19.979,32.344c-0.322-0.398-0.91-0.459-1.309-0.135c-0.34,0.278-0.43,0.746-0.249,1.127
		c0.595-0.061,1.183-0.179,1.763-0.354C20.197,32.758,20.13,32.53,19.979,32.344z"/>
	<path fill="#91BD15" d="M17.963,29.866c-0.322-0.399-0.908-0.458-1.308-0.134c-0.398,0.325-0.457,0.912-0.134,1.313
		c0.324,0.397,0.91,0.459,1.308,0.133C18.23,30.853,18.29,30.267,17.963,29.866z"/>
	<path fill="#91BD15" d="M15.816,28.7c0.398-0.323,0.457-0.911,0.134-1.313c-0.325-0.396-0.909-0.455-1.308-0.133
		c-0.399,0.326-0.459,0.912-0.135,1.313C14.832,28.965,15.416,29.025,15.816,28.7z"/>
	<circle fill="#91BD15" cx="13.214" cy="25.5" r="0.931"/>
	<path fill="#91BD15" d="M11.788,23.746c0.397-0.326,0.458-0.914,0.132-1.312c-0.322-0.397-0.91-0.458-1.309-0.136
		c-0.398,0.326-0.459,0.914-0.133,1.313C10.803,24.01,11.389,24.07,11.788,23.746z"/>
	<path fill="#91BD15" d="M9.771,21.267c0.4-0.323,0.459-0.911,0.137-1.312c-0.141-0.17-0.328-0.273-0.526-0.316
		c-0.297,0.535-0.534,1.098-0.718,1.673C8.997,21.539,9.445,21.535,9.771,21.267z"/>
	<path fill="#91BD15" d="M21.3,32.125c-0.185,0.15-0.294,0.357-0.329,0.577c0.461-0.188,0.91-0.413,1.344-0.681
		C21.997,31.855,21.598,31.883,21.3,32.125z"/>
	<circle fill="#91BD15" cx="19.873" cy="30.371" r="0.932"/>
	<path fill="#91BD15" d="M17.271,27.17c-0.398,0.324-0.459,0.912-0.137,1.313c0.326,0.398,0.913,0.457,1.311,0.133
		c0.398-0.322,0.459-0.91,0.136-1.309C18.255,26.906,17.669,26.846,17.271,27.17z"/>
	<path fill="#91BD15" d="M15.256,24.693c-0.398,0.325-0.458,0.911-0.134,1.313c0.323,0.396,0.91,0.459,1.308,0.134
		c0.4-0.325,0.461-0.911,0.137-1.31C16.243,24.43,15.656,24.371,15.256,24.693z"/>
	<circle fill="#91BD15" cx="13.83" cy="22.94" r="0.931"/>
	<path fill="#91BD15" d="M12.402,21.185c0.397-0.326,0.459-0.911,0.136-1.312c-0.326-0.398-0.911-0.459-1.31-0.134
		c-0.399,0.325-0.459,0.911-0.133,1.31C11.417,21.448,12.004,21.508,12.402,21.185z"/>
	<path fill="#91BD15" d="M10.387,18.707c0.277-0.227,0.387-0.576,0.323-0.901c-0.327,0.349-0.622,0.721-0.884,1.106
		C10.023,18.906,10.223,18.84,10.387,18.707z"/>
	<path fill="#91BD15" d="M24.546,29.479c-0.299,0.241-0.405,0.627-0.31,0.976c0.348-0.373,0.66-0.766,0.935-1.18
		C24.954,29.267,24.73,29.332,24.546,29.479z"/>
	<path fill="#91BD15" d="M22.529,27.002c-0.397,0.328-0.459,0.914-0.133,1.313c0.326,0.4,0.908,0.46,1.31,0.135
		c0.397-0.324,0.457-0.912,0.133-1.313C23.516,26.738,22.93,26.678,22.529,27.002z"/>
	<path fill="#91BD15" d="M21.825,24.66c-0.325-0.398-0.912-0.458-1.31-0.134c-0.397,0.325-0.461,0.911-0.135,1.31
		c0.326,0.4,0.91,0.463,1.311,0.135C22.09,25.647,22.148,25.06,21.825,24.66z"/>
	<circle fill="#91BD15" cx="19.089" cy="22.771" r="0.931"/>
	<path fill="#91BD15" d="M17.796,19.707c-0.325-0.399-0.911-0.461-1.31-0.136c-0.398,0.323-0.459,0.911-0.135,1.31
		c0.324,0.4,0.91,0.459,1.311,0.135C18.059,20.691,18.12,20.106,17.796,19.707z"/>
	<path fill="#91BD15" d="M14.473,17.092c-0.396,0.326-0.459,0.914-0.133,1.313c0.321,0.397,0.909,0.457,1.307,0.132
		c0.397-0.324,0.459-0.912,0.133-1.311C15.457,16.83,14.872,16.769,14.473,17.092z"/>
	<path fill="#91BD15" d="M13.633,16.063c0.167-0.135,0.27-0.314,0.314-0.507c-0.432,0.177-0.854,0.392-1.26,0.64
		C12.992,16.322,13.357,16.287,13.633,16.063z"/>
	<path fill="#91BD15" d="M26.255,23.109c0.123,0.148,0.282,0.252,0.455,0.303c-0.04-0.554-0.133-1.104-0.272-1.646
		c-0.017,0.012-0.035,0.019-0.047,0.03C25.992,22.123,25.934,22.709,26.255,23.109z"/>
	<path fill="#91BD15" d="M24.375,19.32c-0.4,0.324-0.459,0.911-0.135,1.311c0.322,0.398,0.91,0.459,1.31,0.134
		c0.181-0.146,0.286-0.345,0.324-0.558c-0.164-0.347-0.347-0.688-0.556-1.021C25.014,19.058,24.65,19.094,24.375,19.32z"/>
	<path fill="#91BD15" d="M22.361,16.842c-0.398,0.326-0.459,0.912-0.133,1.312c0.324,0.397,0.91,0.46,1.308,0.134
		c0.272-0.222,0.383-0.564,0.323-0.887c-0.291-0.277-0.596-0.529-0.914-0.764C22.741,16.637,22.533,16.703,22.361,16.842z"/>
	<path fill="#91BD15" d="M21.521,15.812c0.008-0.009,0.015-0.017,0.021-0.022c-0.495-0.24-1.007-0.437-1.529-0.584
		c0.021,0.166,0.086,0.33,0.199,0.471C20.537,16.076,21.123,16.135,21.521,15.812z"/>
	<path fill="#91BD15" d="M25.161,26.92c-0.399,0.324-0.46,0.912-0.136,1.312c0.152,0.187,0.359,0.296,0.582,0.329
		c0.291-0.531,0.523-1.085,0.703-1.656C25.977,26.648,25.501,26.643,25.161,26.92z"/>
	<circle fill="#91BD15" cx="23.732" cy="25.167" r="0.931"/>
	<path fill="#91BD15" d="M21.13,21.965c-0.397,0.324-0.46,0.91-0.134,1.312c0.322,0.399,0.912,0.457,1.309,0.134
		c0.398-0.322,0.459-0.91,0.135-1.311C22.116,21.7,21.53,21.64,21.13,21.965z"/>
	<path fill="#91BD15" d="M19.117,19.487c-0.398,0.325-0.461,0.913-0.135,1.312s0.912,0.459,1.312,0.135
		c0.397-0.326,0.456-0.913,0.132-1.313C20.102,19.224,19.516,19.164,19.117,19.487z"/>
	<path fill="#91BD15" d="M16.969,18.321c0.322,0.399,0.91,0.459,1.309,0.134c0.398-0.324,0.457-0.91,0.136-1.309
		c-0.326-0.4-0.911-0.46-1.312-0.135C16.705,17.336,16.643,17.92,16.969,18.321z"/>
	<path fill="#91BD15" d="M14.953,15.844c0.324,0.399,0.911,0.457,1.311,0.134c0.326-0.267,0.42-0.705,0.269-1.076
		c-0.603,0.063-1.199,0.183-1.783,0.363C14.749,15.469,14.814,15.674,14.953,15.844z"/>
	<path fill="#91BD15" d="M25.775,24.359c-0.398,0.325-0.459,0.91-0.135,1.311c0.227,0.277,0.578,0.389,0.905,0.321
		c0.119-0.579,0.183-1.169,0.188-1.76C26.425,24.096,26.055,24.129,25.775,24.359z"/>
	<path fill="#91BD15" d="M23.626,23.191c0.323,0.398,0.91,0.46,1.308,0.134c0.4-0.323,0.459-0.909,0.135-1.309
		c-0.323-0.399-0.91-0.46-1.309-0.136C23.361,22.207,23.3,22.795,23.626,23.191z"/>
	<path fill="#91BD15" d="M21.613,20.715c0.324,0.399,0.908,0.459,1.308,0.134s0.459-0.912,0.138-1.31
		c-0.326-0.4-0.912-0.461-1.311-0.137C21.348,19.729,21.287,20.315,21.613,20.715z"/>
	<path fill="#91BD15" d="M19.598,18.237c0.323,0.399,0.911,0.459,1.309,0.134c0.398-0.324,0.46-0.91,0.136-1.312
		c-0.325-0.399-0.911-0.458-1.31-0.134C19.333,17.252,19.273,17.838,19.598,18.237z"/>
	<path fill="#91BD15" d="M17.584,15.76c0.325,0.399,0.908,0.459,1.309,0.135c0.269-0.221,0.381-0.557,0.326-0.877
		c-0.589-0.112-1.188-0.168-1.783-0.164C17.326,15.151,17.37,15.496,17.584,15.76z"/>
	<path fill="#91BD15" d="M14.721,32.51c-0.324-0.397-0.912-0.459-1.31-0.135c-0.017,0.015-0.029,0.03-0.043,0.043
		c0.504,0.25,1.024,0.45,1.56,0.604C14.911,32.842,14.844,32.664,14.721,32.51z"/>
	<path fill="#91BD15" d="M12.572,31.344c0.398-0.324,0.458-0.911,0.134-1.311c-0.324-0.398-0.912-0.461-1.31-0.134
		c-0.275,0.226-0.385,0.574-0.321,0.901c0.28,0.271,0.577,0.52,0.883,0.746C12.171,31.556,12.391,31.491,12.572,31.344z"/>
	<path fill="#91BD15" d="M10.559,28.868c0.398-0.325,0.457-0.911,0.133-1.312c-0.323-0.397-0.91-0.459-1.309-0.135
		c-0.173,0.142-0.279,0.336-0.32,0.537c0.162,0.354,0.346,0.705,0.558,1.043C9.924,29.127,10.284,29.09,10.559,28.868z"/>
	<path fill="#91BD15" d="M8.678,25.08c-0.113-0.143-0.264-0.238-0.424-0.293c0.04,0.545,0.127,1.088,0.264,1.62
		c0.006-0.007,0.017-0.011,0.025-0.018C8.941,26.064,9.002,25.479,8.678,25.08z"/>
	<path fill="#91BD15" d="M17.35,32.428c-0.324-0.399-0.908-0.459-1.309-0.135c-0.281,0.229-0.389,0.588-0.318,0.92
		c0.578,0.111,1.168,0.17,1.756,0.17C17.611,33.073,17.575,32.707,17.35,32.428z"/>
	<path fill="#91BD15" d="M15.332,29.95c-0.32-0.399-0.908-0.459-1.307-0.136c-0.399,0.327-0.459,0.913-0.133,1.313
		c0.324,0.399,0.91,0.461,1.309,0.135C15.598,30.937,15.66,30.35,15.332,29.95z"/>
	<path fill="#91BD15" d="M13.32,27.473c-0.324-0.399-0.91-0.459-1.307-0.135c-0.398,0.326-0.459,0.91-0.136,1.311
		c0.325,0.398,0.911,0.46,1.31,0.135C13.585,28.457,13.646,27.873,13.32,27.473z"/>
	<path fill="#91BD15" d="M11.307,24.996c-0.322-0.398-0.91-0.459-1.31-0.134c-0.397,0.323-0.458,0.911-0.133,1.312
		c0.323,0.397,0.911,0.457,1.31,0.135C11.572,25.982,11.629,25.396,11.307,24.996z"/>
	<path fill="#91BD15" d="M9.159,23.83c0.397-0.324,0.457-0.912,0.134-1.312c-0.214-0.263-0.545-0.376-0.859-0.328
		c-0.123,0.585-0.191,1.183-0.199,1.778C8.533,24.088,8.889,24.047,9.159,23.83z"/>
</g>
<path fill="none" stroke="#A4D100" stroke-width="1.3514" stroke-miterlimit="10" d="M11.105,16.596
	c-4.172,3.572-4.66,9.853-1.092,14.027c3.567,4.176,9.84,4.662,14.01,1.092c4.17-3.572,4.658-9.854,1.093-14.026
	C21.546,13.512,15.273,13.022,11.105,16.596z"/>
</svg>
